<svg width="176" height="123" viewBox="0 0 176 123" fill="none" xmlns="http://www.w3.org/2000/svg">
  <path d="M53.0849 116.757C53.5303 116.757 53.8865 117.113 53.7084 117.913L51.6598 118.358C52.0161 117.469 52.6396 116.757 53.0849 116.757ZM54.2428 120.047H53.7975C53.2631 120.67 52.7286 121.114 52.1942 121.114C51.6598 121.114 51.3035 120.759 51.3035 120.047C51.3035 119.781 51.3035 119.425 51.3926 119.158L54.6882 118.091C55.3116 116.579 54.5991 115.868 53.6193 115.868C52.0161 115.868 50.2347 118.447 50.2347 120.759C50.2347 121.826 50.7691 122.359 51.4817 122.359C52.5505 122.359 53.4412 121.47 54.2428 120.047ZM53.5303 115.245L55.846 113.111V112.845H54.5991L53.174 115.245H53.5303ZM46.4048 116.757H47.4736L45.6922 121.559C45.5141 122.004 45.7813 122.359 46.1376 122.359C47.1173 122.359 48.7206 121.381 49.255 120.047H48.9878C48.5424 120.492 47.6517 121.114 46.9392 121.292L48.5424 116.846H50.1456L50.3238 116.135H48.7206L49.344 114.445H48.7206L47.5627 116.135L46.2266 116.313V116.757H46.4048ZM44.9797 116.579C45.0687 116.135 44.8015 115.868 44.6234 115.868C43.6436 115.868 42.5748 116.757 42.0404 117.913H42.3076C42.5748 117.469 43.1092 117.024 43.6436 116.935L41.7732 121.648C41.5951 122.093 41.9513 122.359 42.1295 122.359C43.0202 122.359 44.089 121.47 44.5343 120.314H44.2671C43.9999 120.759 43.4655 121.203 42.9311 121.292L44.9797 116.579ZM45.2469 114.178C45.6922 114.178 46.0485 113.823 46.0485 113.378C46.0485 112.933 45.6922 112.578 45.2469 112.578C44.8015 112.578 44.4453 112.933 44.4453 113.378C44.4453 113.823 44.8015 114.178 45.2469 114.178ZM34.7368 121.47C34.4696 122.004 34.7368 122.359 35.2712 122.359C35.6275 122.359 35.7165 122.27 35.8947 121.915L37.1416 118.536C37.7651 117.824 38.923 117.024 39.4574 117.024C39.8137 117.024 39.7246 117.291 39.5465 117.735L37.587 121.47C37.4088 121.826 37.676 122.27 38.0323 122.27C39.0121 122.27 40.17 121.381 40.6153 120.225H40.3481C40.0809 120.67 39.5465 121.114 39.0121 121.203L40.7044 117.824C40.8825 117.38 41.0606 117.024 41.0606 116.668C41.0606 116.135 40.7934 115.779 40.17 115.779C39.3683 115.779 38.4777 116.668 37.4979 117.824V116.935C37.4979 116.313 37.3198 115.779 36.6963 115.779C36.34 115.779 35.9837 116.046 35.6275 116.49V116.579C36.2509 116.579 36.5181 117.469 36.0728 118.447L34.7368 121.47ZM34.7368 117.291C35.004 116.49 34.8258 115.868 34.2024 115.868C33.4898 115.868 33.3117 116.401 32.5991 117.913V117.024C32.5991 116.401 32.421 115.868 31.7975 115.868C31.085 115.868 30.5505 116.935 30.0161 117.913H30.2833C30.6396 117.469 30.9068 117.202 31.174 117.202C31.4412 117.202 31.6194 117.646 31.174 118.625L29.838 121.47C29.5708 122.004 29.838 122.359 30.3724 122.359C30.7287 122.359 30.8178 122.27 30.9959 121.915L32.2429 118.536C32.5991 118.091 32.9554 117.735 33.3117 117.291H34.7368ZM27.3441 116.757C27.7894 116.757 28.1457 117.113 27.9676 117.913L25.919 118.358C26.2753 117.469 26.8987 116.757 27.3441 116.757ZM28.502 120.047H28.0566C27.5222 120.67 26.9878 121.114 26.4534 121.114C25.919 121.114 25.5627 120.759 25.5627 120.047C25.5627 119.781 25.5627 119.425 25.6518 119.158L28.9473 118.091C29.5708 116.579 28.8582 115.868 27.8785 115.868C26.2753 115.868 24.4939 118.447 24.4939 120.759C24.4939 121.826 25.0283 122.359 25.7408 122.359C26.8097 122.359 27.7003 121.47 28.502 120.047ZM20.6639 116.757H21.7327L19.9514 121.559C19.7732 122.004 20.0404 122.359 20.3967 122.359C21.3765 122.359 22.9797 121.381 23.5141 120.047H23.2469C22.8016 120.492 21.9109 121.114 21.1983 121.292L22.8016 116.846H24.4048L24.5829 116.135H22.9797L23.6032 114.445H23.1578L22 116.135L20.6639 116.313V116.757ZM14.6963 120.492C14.6963 118.98 16.2996 117.024 17.2793 117.024C17.4575 117.024 17.6356 117.024 17.8137 117.113L16.834 119.692C16.2996 120.403 15.4089 121.203 15.0526 121.203C14.7854 121.114 14.6963 120.937 14.6963 120.492ZM19.6842 115.601H19.1498L18.6153 116.135H18.5263C15.7652 116.135 13.4494 119.158 13.4494 121.381C13.4494 122.004 13.8056 122.359 14.4291 122.359C15.1417 122.359 15.8542 121.381 16.5668 120.314V120.67C16.4777 121.737 16.834 122.359 17.3684 122.359C18.0809 122.359 18.6153 121.292 19.1498 120.314H18.8826C18.5263 120.759 18.2591 121.026 17.9919 121.026C17.7247 121.026 17.5465 120.581 17.9919 119.603L19.6842 115.601ZM13.8947 117.291C14.1619 116.49 13.9838 115.868 13.3603 115.868C12.6477 115.868 12.4696 116.401 11.7571 117.913V117.024C11.7571 116.401 11.5789 115.868 10.9554 115.868C10.2429 115.868 9.70848 116.935 9.17407 117.913H9.44128C9.79755 117.469 10.0648 117.202 10.332 117.202C10.5992 117.202 10.7773 117.646 10.332 118.625L8.99593 121.47C8.72873 122.004 8.99593 122.359 9.53035 122.359C9.88662 122.359 9.97569 122.27 10.1538 121.915L11.4008 118.536C11.7571 118.091 12.1133 117.735 12.4696 117.291H13.8947ZM4.72064 122.093L4.80971 121.737C3.20647 121.47 3.02833 121.47 3.65181 119.692L4.2753 117.913H6.05667C6.85829 117.913 6.85829 118.269 6.76922 119.069H7.21456L8.28338 116.224H7.83804C7.48177 116.935 7.12549 117.38 6.23481 117.38H4.5425L5.43319 114.89C5.70039 114.089 5.87853 113.912 6.94735 113.912H7.74897C8.8178 113.912 8.99593 114.178 8.99593 115.334H9.44128L9.79755 113.378H3.20647L3.02833 113.823C4.2753 114.089 4.45343 114.178 3.82995 115.868L2.40485 119.781C1.78137 121.381 1.51417 121.559 0.0890687 121.826L0 122.093H4.72064ZM37.0526 101.818C37.4979 101.818 37.8542 102.174 37.676 102.974L35.6275 103.419C35.9837 102.529 36.6072 101.818 37.0526 101.818ZM38.2105 105.108H37.7651C37.2307 105.731 36.6963 106.175 36.1619 106.175C35.6275 106.175 35.2712 105.82 35.2712 105.108C35.2712 104.841 35.2712 104.486 35.3603 104.219L38.6558 103.152C39.2793 101.64 38.5667 100.929 37.587 100.929C35.9837 100.929 34.2024 103.508 34.2024 105.82C34.2024 106.887 34.7368 107.42 35.4493 107.42C36.5181 107.42 37.4088 106.531 38.2105 105.108ZM37.587 100.306L39.9028 98.1721V97.9053H38.6558L37.2307 100.306H37.587ZM30.3724 101.907H31.4412L29.6599 106.709C29.4817 107.153 29.7489 107.509 30.1052 107.509C31.085 107.509 32.6882 106.531 33.2226 105.197H32.9554C32.5101 105.642 31.6194 106.264 30.9068 106.442L32.5101 101.996H34.1133L34.2914 101.284H32.9554L33.5789 99.5948H32.9554L31.7975 101.284L30.4615 101.462V101.907H30.3724ZM28.9473 101.64C29.0364 101.195 28.7692 100.929 28.591 100.929C27.6113 100.929 26.5425 101.818 26.008 102.974H26.2753C26.5425 102.529 27.0769 102.085 27.6113 101.996L25.8299 106.709C25.6518 107.153 26.008 107.42 26.1862 107.42C27.0769 107.42 28.1457 106.531 28.591 105.375H28.3238C28.0566 105.82 27.5222 106.264 26.9878 106.353L28.9473 101.64ZM29.2145 99.2391C29.6599 99.2391 30.0161 98.8834 30.0161 98.4388C30.0161 97.9942 29.6599 97.6385 29.2145 97.6385C28.7692 97.6385 28.4129 97.9942 28.4129 98.4388C28.502 98.8834 28.7692 99.2391 29.2145 99.2391ZM22.8906 106.353L26.1862 97.6385L26.0971 97.5496L24.0485 97.8164V98.0831L24.4939 98.3499C24.8502 98.6167 24.7611 98.8834 24.4048 99.7727L21.8218 106.62C21.6437 106.976 21.9109 107.42 22.2672 107.42C23.2469 107.42 24.2267 106.531 24.672 105.375H24.4048C24.0485 105.82 23.4251 106.353 22.8906 106.353ZM16.5668 105.553C16.5668 104.041 18.17 102.085 19.1498 102.085C19.3279 102.085 19.506 102.085 19.6842 102.174L18.7044 104.752C18.17 105.464 17.2793 106.264 16.923 106.264C16.6558 106.175 16.5668 105.997 16.5668 105.553ZM21.5546 100.662H21.0202L20.4858 101.195H20.3967C17.6356 101.195 15.3198 104.219 15.3198 106.442C15.3198 107.064 15.6761 107.42 16.2996 107.42C17.0121 107.42 17.7247 106.442 18.4372 105.375V105.731C18.3481 106.798 18.7044 107.42 19.2388 107.42C19.9514 107.42 20.4858 106.353 21.0202 105.375H20.753C20.3967 105.82 20.1295 106.086 19.8623 106.086C19.5951 106.086 19.417 105.642 19.8623 104.664L21.5546 100.662ZM9.44128 108.576C9.44128 107.954 10.0648 107.509 10.9554 107.242C11.2227 107.42 11.668 107.509 12.2024 107.776C13.0931 108.043 13.4494 108.22 13.4494 108.487C13.4494 109.11 12.4696 109.554 11.1336 109.554C9.97569 109.465 9.44128 109.199 9.44128 108.576ZM11.8461 104.752C11.4899 104.752 11.3117 104.397 11.3117 104.041C11.3117 102.974 11.8461 101.373 12.8259 101.373C13.1822 101.373 13.3603 101.729 13.3603 102.085C13.3603 103.152 12.8259 104.752 11.8461 104.752ZM14.5182 108.043C14.5182 107.242 13.8056 106.976 12.7368 106.709C11.7571 106.442 11.3117 106.353 11.3117 105.997C11.3117 105.731 11.4899 105.464 11.9352 105.197C13.5384 105.108 14.5182 103.685 14.5182 102.529C14.5182 102.263 14.4291 102.085 14.4291 101.907H15.7652L15.9433 101.195H13.8056C13.5384 101.018 13.2712 100.929 12.915 100.929C11.2227 100.929 10.1538 102.351 10.1538 103.596C10.1538 104.486 10.6882 105.019 11.4008 105.197C10.5992 105.553 10.1538 105.908 10.1538 106.442C10.1538 106.709 10.2429 106.887 10.5101 107.064C8.72873 107.598 8.01618 108.22 8.01618 109.021C8.01618 109.821 9.085 110.177 10.421 110.177C12.6477 110.177 14.5182 109.021 14.5182 108.043ZM6.14574 102.885C6.94735 102.885 6.94735 103.241 6.85829 104.041H7.30363L8.37245 101.195H7.83804C7.48177 101.907 7.12549 102.351 6.23481 102.351H4.5425L5.43319 99.9505C5.70039 99.1502 5.87853 98.9724 6.94735 98.9724H7.74897C8.8178 98.9724 8.99593 99.2391 8.99593 100.395H9.44128L9.79755 98.4388H3.20647L3.1174 98.7945C4.36436 99.0613 4.5425 99.1502 3.91902 100.84L2.49392 104.752C1.87044 106.353 1.60324 106.531 0.178137 106.798L0 107.242H7.30363L8.63966 105.197H8.19432C7.30363 105.908 6.23481 106.709 4.80971 106.709C2.8502 106.709 3.02833 106.62 3.65181 104.841L4.36436 102.974H6.14574V102.885ZM7.12549 97.9053L9.44128 96.3047V96.0379H8.01618L6.76922 97.9053H7.12549ZM36.34 86.8787C36.7854 86.8787 37.1416 87.2344 36.9635 88.0347L34.9149 88.4793C35.1821 87.5901 35.8056 86.8787 36.34 86.8787ZM37.4088 90.1689H36.9635C36.4291 90.7914 35.8947 91.236 35.3603 91.236C34.8258 91.236 34.4696 90.8803 34.4696 90.1689C34.4696 89.8132 34.4696 89.5464 34.5586 89.2797L37.8542 88.2126C38.4777 86.7009 37.7651 85.9895 36.7854 85.9895C35.1821 85.9895 33.4007 88.5683 33.4007 90.8803C33.4007 91.9474 33.9352 92.4809 34.6477 92.4809C35.7165 92.4809 36.6963 91.6806 37.4088 90.1689ZM36.7854 85.367L39.1011 83.2328V82.966H37.8542L36.4291 85.367H36.7854ZM29.9271 86.9676H30.8178L29.0364 91.7695C28.8582 92.2141 29.1254 92.5698 29.4817 92.5698C30.4615 92.5698 32.0647 91.5917 32.5991 90.2578H32.3319C31.8866 90.7024 31.085 91.3249 30.2833 91.5028L31.8866 87.0566H33.4898L33.6679 86.3452H32.0647L32.6882 84.6556H32.0647L31.085 86.2562L29.9271 86.4341V86.9676ZM29.0364 87.5012C29.3036 86.7009 29.1254 86.0784 28.502 86.0784C27.7894 86.0784 27.6113 86.6119 26.8987 88.1236V87.2344C26.8987 86.6119 26.7206 86.0784 26.0971 86.0784C25.3846 86.0784 24.8502 87.1455 24.3157 88.1236H24.5829C24.9392 87.679 25.2064 87.4123 25.4736 87.4123C25.7408 87.4123 25.919 87.8569 25.4736 88.835L24.2267 91.6806C23.9595 92.2141 24.2267 92.5698 24.7611 92.5698C25.1174 92.5698 25.2064 92.4809 25.3846 92.1252L26.6315 88.7461C26.9878 88.3015 27.3441 87.9458 27.7004 87.5012H29.0364ZM21.7327 86.8787C22.1781 86.8787 22.5344 87.2344 22.3562 88.0347L20.3077 88.4793C20.6639 87.5901 21.1983 86.8787 21.7327 86.8787ZM22.8906 90.1689H22.4453C21.9109 90.7914 21.3765 91.236 20.8421 91.236C20.3077 91.236 19.9514 90.8803 19.9514 90.1689C19.9514 89.8132 19.9514 89.5464 20.0404 89.2797L23.336 88.2126C23.9595 86.7009 23.2469 85.9895 22.2672 85.9895C20.6639 85.9895 18.8826 88.5683 18.8826 90.8803C18.8826 91.9474 19.417 92.4809 20.1295 92.4809C21.1983 92.4809 22.089 91.6806 22.8906 90.1689ZM14.6963 91.5917C14.3401 91.5917 13.8947 91.3249 13.8947 91.0581C13.8947 90.9692 14.0728 90.6135 14.251 90.1689L14.7854 88.7461C15.3198 88.0347 16.2105 87.3233 16.7449 87.3233C17.0121 87.3233 17.2793 87.5012 17.2793 87.9458C17.2793 89.1907 16.0324 91.5917 14.6963 91.5917ZM18.5263 87.3233C18.5263 86.3452 18.17 85.9895 17.4575 85.9895C16.6558 85.9895 15.8542 86.8787 15.0526 87.9458L17.0121 82.6993L16.923 82.6104L14.8745 82.8771V83.1439L15.3198 83.4107C15.6761 83.6774 15.587 84.0331 15.2307 84.8335L13.0931 90.3467C12.915 90.7914 12.7368 91.236 12.7368 91.3249C12.7368 91.8584 13.5384 92.392 14.251 92.392C15.7652 92.4809 18.5263 89.5464 18.5263 87.3233ZM12.0243 86.7009C12.1133 86.2562 11.8461 85.9895 11.668 85.9895C10.6882 85.9895 9.61941 86.8787 9.085 88.0347H9.35221C9.61941 87.5901 10.1538 87.1455 10.6882 87.0566L8.8178 91.7695C8.63966 92.2141 8.99593 92.4809 9.17407 92.4809C10.0648 92.4809 11.1336 91.5917 11.5789 90.4357H11.3117C11.0445 90.8803 10.5101 91.3249 9.97569 91.4138L12.0243 86.7009ZM12.2915 84.2999C12.7368 84.2999 13.0931 83.9442 13.0931 83.4996C13.0931 83.055 12.7368 82.6993 12.2915 82.6993C11.8461 82.6993 11.4899 83.055 11.4899 83.4996C11.5789 83.9442 11.8461 84.2999 12.2915 84.2999ZM7.48177 83.5885H3.1174L3.02833 83.9442C4.2753 84.211 4.45343 84.2999 3.82995 85.9895L2.40485 89.9021C1.78137 91.5028 1.51417 91.6806 0.0890687 91.9474L0 92.3031H6.59108L8.01618 89.7243H7.57084C6.76922 90.6135 5.78946 91.7695 4.36436 91.7695C3.29554 91.7695 3.1174 91.5917 3.74088 89.9021L5.16598 85.9895C5.78946 84.3888 6.05667 84.211 7.48177 83.9442V83.5885Z" fill="black"/>
  <path d="M24.5831 19.1187C24.8503 18.8519 25.0284 18.6741 25.2956 18.4073C25.741 17.8737 26.1863 17.4291 26.6317 16.9845C26.8098 16.8067 26.8989 16.7177 27.077 16.6288C27.077 16.6288 27.077 16.5399 27.1661 16.451C26.9879 16.5399 26.8098 16.7177 26.6317 16.8067C26.6317 16.8067 26.5426 16.8067 26.6317 16.7177C26.8098 16.6288 26.8989 16.5399 27.077 16.362C27.077 16.362 27.077 16.362 27.077 16.2731C26.5426 16.1842 26.0973 16.5399 25.741 16.8956C25.6519 16.8956 25.5629 16.8956 25.5629 16.8956C24.9394 17.0734 24.494 17.607 23.8705 17.8737V17.7848C23.6033 17.8737 23.4252 18.0516 23.158 18.0516C22.8017 18.1405 22.4454 18.0516 22.1782 18.0516C21.6438 18.1405 21.1985 18.2294 20.6641 18.3184C20.3969 18.4073 20.1297 18.4962 19.8625 18.5851C19.8625 18.5851 19.8625 18.6741 19.7734 18.6741C19.6843 18.763 19.5952 18.8519 19.5062 18.9408C19.239 19.0298 19.0608 19.2965 18.7936 19.4744C18.7936 19.4744 18.7936 19.4744 18.7046 19.4744C18.5264 19.6522 18.2592 19.919 18.0811 20.0968H17.992C17.992 20.0079 18.0811 20.0079 18.0811 19.919C18.0811 19.8301 18.1702 19.8301 18.1702 19.7411C18.2592 19.6522 18.2592 19.5633 18.3483 19.4744C18.3483 19.4744 18.3483 19.4744 18.3483 19.3854C18.3483 19.3854 18.3483 19.3854 18.2592 19.3854C18.4374 19.2076 18.7046 19.0298 18.9718 18.8519H18.8827L18.9718 18.763C18.8827 18.763 18.7936 18.8519 18.7936 18.9408C18.7046 19.0298 18.6155 19.2076 18.4374 19.2076C18.4374 19.2076 18.4374 19.2076 18.3483 19.2076C18.3483 19.2076 18.3483 19.2076 18.3483 19.1187C18.3483 19.1187 18.3483 19.0298 18.4374 19.0298V18.9408V18.8519C18.5264 18.763 18.6155 18.6741 18.7046 18.5851C18.8827 18.4962 19.0608 18.4073 19.1499 18.3184C19.1499 18.3184 19.239 18.3184 19.239 18.2294C18.9718 18.3184 18.7936 18.4073 18.6155 18.5851H18.5264H18.4374C18.4374 18.4962 18.6155 18.4962 18.7046 18.4073H18.7936C20.1297 17.4291 21.911 17.607 23.4252 17.0734C23.5143 16.9845 23.6924 16.8956 23.7815 16.8067C23.9596 16.7177 24.1378 16.5399 24.405 16.362C24.7612 16.0953 24.9394 15.8285 25.1175 15.3839V15.2949C24.5831 15.8285 23.9596 16.2731 23.3361 16.6288C22.4454 17.0734 21.5548 16.9845 20.6641 17.1623C20.6641 17.0734 20.7531 17.0734 20.8422 17.0734C20.8422 16.9845 20.9313 16.8956 21.0203 16.8067H21.1094C21.1094 16.8067 21.1094 16.7177 21.1985 16.7177C21.2876 16.7177 21.3766 16.7177 21.3766 16.7177C21.2876 16.5399 21.0203 16.8067 20.8422 16.7177C20.9313 16.6288 20.8422 16.5399 20.9313 16.451H21.1094C21.1094 16.362 21.1985 16.2731 21.1985 16.2731C21.822 15.9174 22.3564 15.6506 22.9799 15.2949C22.8908 15.2949 22.8017 15.3839 22.6236 15.2949C22.7127 15.2949 22.6236 15.206 22.7127 15.206C23.158 15.1171 23.5143 14.8503 23.9596 14.6725C23.7815 14.6725 23.6924 14.7614 23.5143 14.6725C23.6033 14.6725 23.6033 14.5835 23.7815 14.5835V14.4946C23.7815 14.4946 23.7815 14.4946 23.8705 14.4946H23.7815C23.7815 14.4057 23.9596 14.4946 24.0487 14.4057H23.9596C24.0487 14.2279 24.3159 14.2279 24.494 14.1389C24.494 14.05 24.3159 14.1389 24.3159 14.05C24.3159 14.05 24.3159 14.05 24.405 14.05H24.3159C24.2268 14.05 24.3159 13.9611 24.3159 13.8722C24.5831 13.6054 24.5831 13.2497 24.6722 12.894H24.5831C24.1378 13.3386 23.5143 13.5165 22.8908 13.6943H22.7127C22.5345 13.7832 22.1782 13.7832 22.0001 13.6943C21.822 13.6054 21.7329 13.5165 21.5548 13.3386C21.1985 13.1608 20.9313 12.9829 20.575 12.8051C19.5953 12.4494 18.5264 12.2715 17.4576 12.3604C17.9029 12.0937 18.4374 12.0937 18.8827 11.9158C19.5953 11.738 20.2187 11.4712 20.9313 11.4712C20.8422 11.4712 20.6641 11.4712 20.4859 11.4712C19.9515 11.4712 19.328 11.5601 18.7046 11.738C18.2592 11.8269 17.9029 12.0048 17.5467 12.0937C17.2795 12.1826 17.1904 12.4494 16.9232 12.3604V12.2715C17.3685 11.738 17.8139 11.2934 18.4374 11.2934C19.1499 11.2044 19.8625 11.2934 20.575 11.3823C21.1094 11.3823 21.5548 11.5601 22.0892 11.6491C22.2673 11.6491 22.3564 12.0048 22.5345 12.0048C22.8017 12.0937 23.0689 12.0048 23.2471 12.1826C23.2471 12.0937 23.2471 12.0047 23.2471 11.9158C23.4252 11.738 23.6033 11.9158 23.7815 11.9158C24.1378 11.738 23.5143 11.3823 23.3361 11.0266V10.9377C23.6924 11.2044 23.8705 11.5601 24.3159 11.738C24.494 11.8269 25.0284 11.9158 24.9394 11.738C24.7612 11.2934 24.3159 10.9377 23.9596 10.493V10.3152C23.8705 10.3152 23.8705 10.3152 23.8705 10.2263V10.0484C23.6924 9.9595 23.7815 9.78165 23.6924 9.69272C23.6033 9.51488 23.6924 9.15918 23.6033 8.98133C23.5143 8.71456 23.5143 8.53671 23.4252 8.26994C23.3361 7.55855 23.158 6.93608 23.0689 6.31361C22.9799 5.51329 23.5143 4.89082 23.8705 4.26836C24.1378 3.73481 24.494 3.29019 25.0284 2.93449C25.1175 2.40095 25.4738 2.04525 25.8301 1.60063C26.1863 1.24494 26.7207 0.978165 27.077 0.800317C27.6114 0.177848 28.0568 0 28.0568 0H36.2511C36.2511 0 36.2511 0 36.4292 0.0889241C36.6074 0.177848 36.8746 0.355696 37.0527 0.44462C37.3199 0.622469 37.6762 0.800317 37.8543 1.06709C37.9434 1.15601 38.0325 1.42279 37.9434 1.60063C37.8543 1.77848 37.8543 2.13418 37.5871 2.2231C37.3199 2.31203 37.0527 2.31203 36.6964 2.31203C36.5183 2.31203 36.3402 2.31203 36.162 2.2231C36.7855 2.48987 37.3199 2.75665 37.7653 3.29019C37.7653 3.37911 37.9434 3.37911 38.1215 3.37911V3.46804C38.0325 3.55696 37.9434 3.55696 38.0325 3.73481H38.2997C38.4778 3.64589 38.4778 3.20127 38.745 3.37911C38.9231 3.46804 39.0122 3.82374 38.9231 4.00158C38.745 4.17943 38.5669 4.26836 38.3887 4.4462C38.3887 4.53513 38.3887 4.62405 38.3887 4.71298C38.4778 4.89082 38.5669 5.06867 38.5669 5.24652C38.6559 5.51329 38.745 5.86899 38.8341 6.13576C39.1013 6.75823 39.2794 7.3807 39.1904 8.00317C39.1904 8.35886 39.0122 8.62564 39.1904 8.98133C39.2794 9.33703 39.4576 9.51488 39.6357 9.87057C39.8138 10.1373 39.992 10.3152 40.081 10.493C40.3482 10.9377 40.7936 11.2934 40.6155 11.8269C40.5264 12.0937 40.081 12.0937 39.7248 12.2715C39.4576 12.4494 39.7248 12.8051 39.8138 12.9829C39.992 13.3386 39.5466 13.6054 39.2794 13.6943C39.3685 13.7832 39.5466 13.7832 39.5466 13.8722C39.5466 14.05 39.8138 14.2279 39.6357 14.4057C39.4576 14.6725 39.0122 14.7614 39.1904 15.1171C39.3685 15.3839 39.2794 15.7396 39.1904 16.0063C39.1013 16.362 38.745 16.5399 38.4778 16.6288C38.2106 16.7177 37.9434 16.7177 37.6762 16.6288C37.5871 16.6288 37.4981 16.5399 37.409 16.5399C36.6964 16.451 35.9839 16.2731 35.3604 16.2731C35.1823 16.2731 34.9151 16.362 34.826 16.451C34.6479 16.6288 34.4697 16.7177 34.2916 16.8956L34.2025 16.9845C34.2025 16.9845 34.2025 16.9845 34.1134 17.0734C34.0244 17.2513 33.8462 17.3402 33.7572 17.518C33.7572 17.518 33.7572 17.518 33.7572 17.607C33.579 17.8737 33.49 18.1405 33.49 18.3184C33.2228 19.2965 33.3118 20.0968 33.49 20.2747C33.579 20.3636 34.826 20.7193 35.7167 21.1639C36.162 21.3418 36.4292 21.5196 36.6964 21.6085H19.8625C20.6641 21.075 21.3766 20.8082 22.5345 20.2747C23.0689 20.0079 24.2268 19.4744 24.5831 19.1187ZM18.3483 16.1842C18.2592 16.1842 18.0811 16.1842 18.1702 16.1842C18.1702 16.0063 18.5264 16.0063 18.7046 15.9174C18.7936 15.9174 18.8827 15.8285 18.9718 15.8285C19.0608 15.9174 19.1499 15.9174 19.239 16.0063C18.9718 16.1842 18.6155 16.0063 18.3483 16.1842ZM12.0244 15.206C12.5588 14.4057 12.9151 13.7832 13.2714 13.0718C13.8058 12.8051 14.2511 12.3604 14.6965 11.9158C15.409 11.2044 16.1216 10.493 17.0123 10.1373C17.3685 10.0484 17.7248 10.0484 18.0811 10.1373C17.992 10.3152 17.7248 10.2263 17.5467 10.4041H17.4576V10.3152C17.0123 10.7598 16.4778 10.9377 16.1216 11.4712C15.8544 11.9158 15.6762 12.4494 15.1418 12.5383C14.9637 12.5383 15.1418 12.4494 15.1418 12.4494C13.9839 13.2497 13.0932 14.1389 12.0244 15.206ZM15.4981 12.5383C15.4981 12.6272 15.409 12.6272 15.409 12.7161C15.409 12.8051 15.32 12.8051 15.2309 12.894H15.1418C15.1418 12.7161 15.2309 12.5383 15.4981 12.5383C15.4981 12.4494 15.4981 12.5383 15.4981 12.5383ZM17.3685 18.6741C17.3685 18.763 17.2795 18.763 17.2795 18.763C17.3685 18.763 17.3685 18.763 17.3685 18.8519C17.2795 18.9408 17.1904 19.0298 17.1013 19.0298C17.1013 19.0298 17.1013 19.0298 17.0123 19.0298C16.9232 19.1187 16.9232 19.1187 16.8341 19.2076C16.7451 19.2076 16.5669 19.2076 16.656 19.1187C16.7451 19.0298 16.8341 18.9408 16.9232 18.8519C17.0123 18.763 17.0123 18.763 17.1013 18.6741L17.1904 18.5851C17.1904 18.5851 17.3685 18.5851 17.3685 18.6741ZM16.656 18.3184C16.4778 18.4073 16.2997 18.5851 16.2106 18.6741C16.0325 18.763 15.8544 18.8519 15.6762 18.9408C15.6762 18.9408 15.6762 18.9408 15.5872 18.9408C15.409 19.0298 15.32 19.1187 15.1418 19.2965C15.1418 19.2965 15.1418 19.2965 15.0527 19.3854C15.0527 19.3854 15.0527 19.3854 14.9637 19.4744L14.8746 19.5633C14.8746 19.5633 14.8746 19.5633 14.7855 19.6522H14.6965H14.6074C14.6074 19.6522 14.6074 19.6522 14.5183 19.6522C14.4293 19.6522 14.4293 19.7411 14.3402 19.7411C14.2511 19.8301 14.1621 19.919 14.073 20.0079C14.073 20.0079 14.073 20.0079 14.073 19.919C14.073 19.8301 14.1621 19.8301 14.1621 19.7411C14.1621 19.7411 14.1621 19.7411 14.1621 19.6522L14.2511 19.5633C14.3402 19.4744 14.3402 19.4744 14.3402 19.3854C14.3402 19.3854 14.3402 19.2965 14.4293 19.2965C14.4293 19.2965 14.4293 19.2076 14.5183 19.2076V19.1187C14.5183 19.1187 14.5183 19.1187 14.5183 19.0298C14.5183 19.0298 14.5183 19.0298 14.5183 18.9408C14.6074 18.8519 14.6074 18.763 14.6965 18.763C14.6074 18.763 14.6074 18.8519 14.5183 18.8519C14.5183 18.8519 14.4293 18.8519 14.4293 18.763L14.5183 18.6741C14.6074 18.5851 14.6074 18.4962 14.6965 18.4962C14.7855 18.4962 14.7855 18.4073 14.7855 18.4073L14.8746 18.3184C15.2309 17.9627 15.9434 17.9627 16.4778 17.6959C16.656 17.607 16.9232 17.6959 17.1013 17.6959C17.1904 17.6959 17.3685 17.6959 17.4576 17.7848C17.2795 17.8737 16.9232 18.1405 16.656 18.3184ZM17.4576 15.4728C17.4576 15.4728 17.5467 15.4728 17.6357 15.3839H17.2795C17.2795 15.3839 17.2795 15.3839 17.2795 15.2949C17.1013 15.2949 16.8341 15.3839 16.656 15.4728C16.3888 15.5617 16.1216 15.7396 15.7653 15.8285C15.32 16.0063 14.9637 16.362 14.4293 16.5399C14.4293 16.5399 14.4293 16.5399 14.4293 16.451C14.4293 16.362 14.6074 16.2731 14.6965 16.1842V16.0953C15.0527 15.6506 15.4981 15.3839 15.8544 15.0282V14.9392C15.9434 14.7614 16.2106 14.6725 16.2997 14.4946C16.2997 14.4057 16.4778 14.2279 16.7451 14.1389C16.7451 14.1389 16.656 14.1389 16.656 14.05C16.4778 14.05 16.2997 14.1389 16.1216 14.05C16.2106 13.9611 16.2997 13.9611 16.3888 13.8722C16.3888 13.8722 16.2997 13.8722 16.2997 13.7832C16.2997 13.6943 16.3888 13.6054 16.4778 13.6054C16.656 13.6054 16.8341 13.6054 17.0123 13.4275C16.7451 13.4275 16.3888 13.5165 16.1216 13.3386C16.2997 12.8051 16.656 12.3604 17.1904 12.0937H17.2795C17.2795 12.2715 17.1904 12.4494 16.9232 12.5383C17.2795 12.6272 17.5467 12.6272 17.9029 12.8051C17.9029 12.894 17.8139 12.8051 17.7248 12.8051C17.9029 12.894 18.1702 12.8051 18.3483 12.9829C18.2592 13.0718 18.0811 12.9829 17.992 12.9829C19.239 13.3386 20.575 13.6054 21.6438 14.4946C20.7531 14.9392 19.7734 15.1171 18.7936 15.3839C18.7046 15.3839 18.6155 15.3839 18.4374 15.3839V15.4728C18.2592 15.4728 18.1702 15.4728 17.992 15.5617C17.8139 15.5617 17.6357 15.6506 17.4576 15.4728Z" fill="white"/>
  <path d="M24.583 19.1187C24.8502 18.8519 25.0283 18.6741 25.2955 18.4073C25.7408 17.8737 26.1862 17.4291 26.6315 16.9845C26.8097 16.8067 26.8987 16.7177 27.0769 16.6288C27.0769 16.6288 27.0769 16.5399 27.1659 16.451C26.9878 16.5399 26.8097 16.7177 26.6315 16.8067C26.6315 16.8067 26.5425 16.8067 26.6315 16.7177C26.8097 16.6288 26.8987 16.5399 27.0769 16.362C27.0769 16.362 27.0769 16.362 27.0769 16.2731C26.5425 16.1842 26.0971 16.5399 25.7408 16.8956C25.6518 16.8956 25.5627 16.8956 25.5627 16.8956C24.9392 17.0734 24.4939 17.607 23.8704 17.8737V17.7848C23.6032 17.8737 23.4251 18.0516 23.1579 18.0516C22.8016 18.1405 22.4453 18.0516 22.1781 18.0516C21.6437 18.1405 21.1983 18.2294 20.6639 18.3184C20.3967 18.4073 20.1295 18.4962 19.8623 18.5851C19.8623 18.5851 19.8623 18.6741 19.7732 18.6741C19.6842 18.763 19.5951 18.8519 19.506 18.9408C19.2388 19.0298 19.0607 19.2965 18.7935 19.4744C18.7935 19.4744 18.7935 19.4744 18.7044 19.4744C18.5263 19.6522 18.2591 19.919 18.0809 20.0968H17.9919C17.9919 20.0079 18.0809 20.0079 18.0809 19.919C18.0809 19.8301 18.17 19.8301 18.17 19.7411C18.2591 19.6522 18.2591 19.5633 18.3481 19.4744C18.3481 19.4744 18.3481 19.4744 18.3481 19.3854C18.3481 19.3854 18.3481 19.3854 18.2591 19.3854C18.4372 19.2076 18.7044 19.0298 18.9716 18.8519H18.8826L18.9716 18.763C18.8826 18.763 18.7935 18.8519 18.7935 18.9408C18.7044 19.0298 18.6154 19.2076 18.4372 19.2076C18.4372 19.2076 18.4372 19.2076 18.3481 19.2076C18.3481 19.2076 18.3481 19.2076 18.3481 19.1187C18.3481 19.1187 18.3481 19.0298 18.4372 19.0298V18.9408V18.8519C18.5263 18.763 18.6154 18.6741 18.7044 18.5851C18.8826 18.4962 19.0607 18.4073 19.1498 18.3184C19.1498 18.3184 19.2388 18.3184 19.2388 18.2294C18.9716 18.3184 18.7935 18.4073 18.6154 18.5851H18.5263H18.4372C18.4372 18.4962 18.6154 18.4962 18.7044 18.4073H18.7935C20.1295 17.4291 21.9109 17.607 23.4251 17.0734C23.5141 16.9845 23.6923 16.8956 23.7813 16.8067C23.9595 16.7177 24.1376 16.5399 24.4048 16.362C24.7611 16.0953 24.9392 15.8285 25.1174 15.3839V15.2949C24.583 15.8285 23.9595 16.2731 23.336 16.6288C22.4453 17.0734 21.5546 16.9845 20.6639 17.1623C20.6639 17.0734 20.753 17.0734 20.8421 17.0734C20.8421 16.9845 20.9311 16.8956 21.0202 16.8067H21.1093C21.1093 16.8067 21.1093 16.7177 21.1983 16.7177C21.2874 16.7177 21.3765 16.7177 21.3765 16.7177C21.2874 16.5399 21.0202 16.8067 20.8421 16.7177C20.9311 16.6288 20.8421 16.5399 20.9311 16.451H21.1093C21.1093 16.362 21.1983 16.2731 21.1983 16.2731C21.8218 15.9174 22.3562 15.6506 22.9797 15.2949C22.8906 15.2949 22.8016 15.3839 22.6234 15.2949C22.7125 15.2949 22.6234 15.206 22.7125 15.206C23.1579 15.1171 23.5141 14.8503 23.9595 14.6725C23.7813 14.6725 23.6923 14.7614 23.5141 14.6725C23.6032 14.6725 23.6032 14.5835 23.7813 14.5835V14.4946C23.7813 14.4946 23.7813 14.4946 23.8704 14.4946H23.7813C23.7813 14.4057 23.9595 14.4946 24.0485 14.4057H23.9595C24.0485 14.2279 24.3157 14.2279 24.4939 14.1389C24.4939 14.05 24.3157 14.1389 24.3157 14.05C24.3157 14.05 24.3157 14.05 24.4048 14.05H24.3157C24.2267 14.05 24.3157 13.9611 24.3157 13.8722C24.583 13.6054 24.583 13.2497 24.672 12.894H24.583C24.1376 13.3386 23.5141 13.5165 22.8906 13.6943H22.7125C22.5344 13.7832 22.1781 13.7832 22 13.6943C21.8218 13.6054 21.7328 13.5165 21.5546 13.3386C21.1983 13.1608 20.9311 12.9829 20.5749 12.8051C19.5951 12.4494 18.5263 12.2715 17.4575 12.3604C17.9028 12.0937 18.4372 12.0937 18.8826 11.9158C19.5951 11.738 20.2186 11.4712 20.9311 11.4712C20.8421 11.4712 20.6639 11.4712 20.4858 11.4712C19.9514 11.4712 19.3279 11.5601 18.7044 11.738C18.2591 11.8269 17.9028 12.0048 17.5465 12.0937C17.2793 12.1826 17.1903 12.4494 16.923 12.3604V12.2715C17.3684 11.738 17.8137 11.2934 18.4372 11.2934C19.1498 11.2044 19.8623 11.2934 20.5749 11.3823C21.1093 11.3823 21.5546 11.5601 22.089 11.6491C22.2672 11.6491 22.3562 12.0048 22.5344 12.0048C22.8016 12.0937 23.0688 12.0048 23.2469 12.1826C23.2469 12.0937 23.2469 12.0047 23.2469 11.9158C23.4251 11.738 23.6032 11.9158 23.7813 11.9158C24.1376 11.738 23.5141 11.3823 23.336 11.0266V10.9377C23.6923 11.2044 23.8704 11.5601 24.3157 11.738C24.4939 11.8269 25.0283 11.9158 24.9392 11.738C24.7611 11.2934 24.3157 10.9377 23.9595 10.493V10.3152C23.8704 10.3152 23.8704 10.3152 23.8704 10.2263V10.0484C23.6923 9.9595 23.7813 9.78165 23.6923 9.69272C23.6032 9.51488 23.6923 9.15918 23.6032 8.98133C23.5141 8.71456 23.5141 8.53671 23.4251 8.26994C23.336 7.55855 23.1579 6.93608 23.0688 6.31361C22.9797 5.51329 23.5141 4.89082 23.8704 4.26836C24.1376 3.73481 24.4939 3.29019 25.0283 2.93449C25.1174 2.40095 25.4736 2.04525 25.8299 1.60063C26.1862 1.24494 26.7206 0.978165 27.0769 0.800317C27.6113 0.177848 28.0566 0 28.0566 0H0V21.6085H19.8623C20.6639 21.075 21.3765 20.8082 22.5344 20.2747C23.0688 20.0079 24.2267 19.4744 24.583 19.1187ZM18.3481 16.1842C18.2591 16.1842 18.0809 16.1842 18.17 16.1842C18.17 16.0063 18.5263 16.0063 18.7044 15.9174C18.7935 15.9174 18.8826 15.8285 18.9716 15.8285C19.0607 15.9174 19.1498 15.9174 19.2388 16.0063C18.9716 16.1842 18.6154 16.0063 18.3481 16.1842ZM12.1133 15.206C12.1133 15.206 12.0243 15.206 12.1133 15.206C12.6478 14.4057 13.004 13.7832 13.3603 13.0718C13.8947 12.8051 14.3401 12.3604 14.7854 11.9158C15.4979 11.2044 16.2105 10.493 17.1012 10.1373C17.4575 10.0484 17.8137 10.0484 18.17 10.1373C18.0809 10.3152 17.8137 10.2263 17.6356 10.4041H17.5465V10.3152C17.1012 10.7598 16.5668 10.9377 16.2105 11.4712C15.9433 11.9158 15.7652 12.4494 15.2307 12.5383C15.0526 12.5383 15.2307 12.4494 15.2307 12.4494C13.9838 13.2497 13.0931 14.1389 12.1133 15.206ZM15.4979 12.5383C15.4979 12.6272 15.4089 12.6272 15.4089 12.7161C15.4089 12.8051 15.3198 12.8051 15.2307 12.894H15.1417C15.1417 12.7161 15.2307 12.5383 15.4979 12.5383C15.4979 12.4494 15.4979 12.5383 15.4979 12.5383ZM17.3684 18.6741C17.3684 18.763 17.2793 18.763 17.2793 18.763C17.3684 18.763 17.3684 18.763 17.3684 18.8519C17.2793 18.9408 17.1903 19.0298 17.1012 19.0298C17.1012 19.0298 17.1012 19.0298 17.0121 19.0298C16.923 19.1187 16.923 19.1187 16.834 19.2076C16.7449 19.2076 16.5668 19.2076 16.6558 19.1187C16.7449 19.0298 16.834 18.9408 16.923 18.8519C17.0121 18.763 17.0121 18.763 17.1012 18.6741L17.1903 18.5851C17.1903 18.5851 17.3684 18.5851 17.3684 18.6741ZM16.6558 18.3184C16.4777 18.4073 16.2996 18.5851 16.2105 18.6741C16.0324 18.763 15.8542 18.8519 15.6761 18.9408C15.6761 18.9408 15.6761 18.9408 15.587 18.9408C15.4089 19.0298 15.3198 19.1187 15.1417 19.2965C15.1417 19.2965 15.1417 19.2965 15.0526 19.3854C15.0526 19.3854 15.0526 19.3854 14.9635 19.4744L14.8745 19.5633C14.8745 19.5633 14.8745 19.5633 14.7854 19.6522H14.6963H14.6073C14.6073 19.6522 14.6073 19.6522 14.5182 19.6522C14.4291 19.6522 14.4291 19.7411 14.3401 19.7411C14.251 19.8301 14.1619 19.919 14.0728 20.0079C14.0728 20.0079 14.0728 20.0079 14.0728 19.919C14.0728 19.8301 14.1619 19.8301 14.1619 19.7411C14.1619 19.7411 14.1619 19.7411 14.1619 19.6522L14.251 19.5633C14.3401 19.4744 14.3401 19.4744 14.3401 19.3854C14.3401 19.3854 14.3401 19.2965 14.4291 19.2965C14.4291 19.2965 14.4291 19.2076 14.5182 19.2076V19.1187C14.5182 19.1187 14.5182 19.1187 14.5182 19.0298C14.5182 19.0298 14.5182 19.0298 14.5182 18.9408C14.6073 18.8519 14.6073 18.763 14.6963 18.763C14.6073 18.763 14.6073 18.8519 14.5182 18.8519C14.5182 18.8519 14.4291 18.8519 14.4291 18.763L14.5182 18.6741C14.6073 18.5851 14.6073 18.4962 14.6963 18.4962C14.7854 18.4962 14.7854 18.4073 14.7854 18.4073L14.8745 18.3184C15.2307 17.9627 15.9433 17.9627 16.4777 17.6959C16.6558 17.607 16.923 17.6959 17.1012 17.6959C17.1903 17.6959 17.3684 17.6959 17.4575 17.7848C17.2793 17.8737 17.0121 18.1405 16.6558 18.3184ZM17.4575 15.4728C17.4575 15.4728 17.5465 15.4728 17.6356 15.3839H17.2793C17.2793 15.3839 17.2793 15.3839 17.2793 15.2949C17.1012 15.2949 16.834 15.3839 16.6558 15.4728C16.3886 15.5617 16.1214 15.7396 15.7652 15.8285C15.3198 16.0063 14.9635 16.362 14.4291 16.5399C14.4291 16.5399 14.4291 16.5399 14.4291 16.451C14.4291 16.362 14.6073 16.2731 14.6963 16.1842V16.0953C15.0526 15.6506 15.4979 15.3839 15.8542 15.0282V14.9392C15.9433 14.7614 16.2105 14.6725 16.2996 14.4946C16.2996 14.4057 16.4777 14.2279 16.7449 14.1389C16.7449 14.1389 16.6558 14.1389 16.6558 14.05C16.4777 14.05 16.2996 14.1389 16.1214 14.05C16.2105 13.9611 16.2996 13.9611 16.3886 13.8722C16.3886 13.8722 16.2996 13.8722 16.2996 13.7832C16.2996 13.6943 16.3886 13.6054 16.4777 13.6054C16.6558 13.6054 16.834 13.6054 17.0121 13.4275C16.7449 13.4275 16.3886 13.5165 16.1214 13.3386C16.2996 12.8051 16.6558 12.3604 17.1903 12.0937H17.2793C17.2793 12.2715 17.1903 12.4494 16.923 12.5383C17.2793 12.6272 17.5465 12.6272 17.9028 12.8051C17.9028 12.894 17.8137 12.8051 17.7247 12.8051C17.9028 12.894 18.17 12.8051 18.3481 12.9829C18.2591 13.0718 18.0809 12.9829 17.9919 12.9829C19.2388 13.3386 20.5749 13.6054 21.6437 14.4946C20.753 14.9392 19.7732 15.1171 18.7935 15.3839C18.7044 15.3839 18.6154 15.3839 18.4372 15.3839V15.4728C18.2591 15.4728 18.17 15.4728 17.9919 15.5617C17.8137 15.5617 17.6356 15.6506 17.4575 15.4728Z" fill="#000091"/>
  <path d="M59.5871 0H36.2511C36.2511 0 36.2511 0 36.4292 0.0889241C36.6073 0.177848 36.8745 0.355696 37.0527 0.44462C37.3199 0.622469 37.6762 0.800317 37.8543 1.06709C37.9434 1.15601 38.0324 1.42279 37.9434 1.60063C37.8543 1.77848 37.8543 2.13418 37.5871 2.2231C37.3199 2.31203 37.0527 2.31203 36.6964 2.31203C36.5183 2.31203 36.3401 2.31203 36.162 2.2231C36.7855 2.48987 37.3199 2.75665 37.7652 3.29019C37.7652 3.37911 37.9434 3.37911 38.1215 3.37911V3.46804C38.0324 3.55696 37.9434 3.55696 38.0324 3.73481H38.2996C38.4778 3.64589 38.4778 3.20127 38.745 3.37911C38.9231 3.46804 39.0122 3.82374 38.9231 4.00158C38.745 4.17943 38.5668 4.26836 38.3887 4.4462C38.3887 4.53513 38.3887 4.62405 38.3887 4.71298C38.4778 4.89082 38.5668 5.06867 38.5668 5.24652C38.6559 5.51329 38.745 5.86899 38.8341 6.13576C39.1013 6.75823 39.2794 7.3807 39.1903 8.00317C39.1903 8.35886 39.0122 8.62564 39.1903 8.98133C39.2794 9.33703 39.4575 9.51488 39.6357 9.87057C39.8138 10.1373 39.9919 10.3152 40.081 10.493C40.3482 10.9377 40.7936 11.2934 40.6154 11.8269C40.5264 12.0937 40.081 12.0937 39.7247 12.2715C39.4575 12.4494 39.7247 12.8051 39.8138 12.9829C39.9919 13.3386 39.5466 13.6054 39.2794 13.6943C39.3685 13.7832 39.5466 13.7832 39.5466 13.8722C39.5466 14.05 39.8138 14.2279 39.6357 14.4057C39.4575 14.6725 39.0122 14.7614 39.1903 15.1171C39.3685 15.3839 39.2794 15.7396 39.1903 16.0063C39.1013 16.362 38.745 16.5399 38.4778 16.6288C38.2106 16.7177 37.9434 16.7177 37.6762 16.6288C37.5871 16.6288 37.498 16.5399 37.409 16.5399C36.6964 16.451 35.9839 16.2731 35.3604 16.2731C35.1822 16.2731 34.915 16.362 34.826 16.451C34.6478 16.6288 34.4697 16.7177 34.2916 16.8956L34.2025 16.9845C34.2025 16.9845 34.2025 16.9845 34.1134 17.0734C34.0243 17.2513 33.8462 17.3402 33.7571 17.518C33.7571 17.518 33.7571 17.518 33.7571 17.607C33.579 17.8737 33.4899 18.1405 33.4899 18.3184C33.2227 19.2965 33.3118 20.0968 33.4899 20.2747C33.579 20.3636 34.826 20.7193 35.7166 21.1639C36.162 21.3418 36.4292 21.5196 36.6964 21.6085H59.5871V0Z" fill="#E1000F"/>
  <path d="M37.676 7.91426C37.8541 7.91426 38.1213 7.91426 38.1213 8.00319C38.0323 8.35888 37.5869 8.44781 37.3197 8.71458H37.2306C37.1416 8.8035 37.1416 8.98135 37.0525 8.98135C36.9634 8.98135 36.7853 8.98135 36.6962 8.98135C36.8744 9.1592 37.0525 9.24812 37.3197 9.24812C37.3197 9.24812 37.4088 9.33705 37.4088 9.42597C37.4088 9.42597 37.4088 9.42597 37.4979 9.42597H37.5869V9.60382C37.4979 9.78167 37.2306 9.69274 37.0525 9.69274C37.4088 9.78167 37.676 9.78167 38.0323 9.69274C38.2995 9.60382 38.0323 9.1592 38.2104 8.98135C38.1213 8.98135 38.2104 8.89243 38.1213 8.89243C38.2104 8.8035 38.2995 8.71458 38.3885 8.62565C38.4776 8.62565 38.5667 8.62565 38.6557 8.53673C38.6557 8.44781 38.4776 8.4478 38.5667 8.35888C38.8339 8.18103 39.012 7.91426 38.923 7.73641C38.923 7.64749 38.5667 7.64749 38.3885 7.55856C38.2104 7.46964 37.9432 7.55856 37.676 7.55856C37.4979 7.55856 37.2306 7.64749 37.0525 7.73641C36.5181 7.82534 36.34 8.00319 36.0728 8.09211C36.34 8.00319 36.6072 7.91426 36.9634 7.82534C37.2306 7.91426 37.4088 7.82534 37.676 7.91426Z" fill="#9C9B9B"/>
  <path d="M0 48.7303V32.5461H4.18623L8.01618 39.2154L11.9352 32.5461H16.1214V48.7303H12.8259V37.1702L9.17407 43.1281H6.85829L3.20647 37.1702V48.6414H0V48.7303ZM20.8421 48.7303V32.5461H24.1376V48.7303H20.8421ZM28.8582 48.7303V32.5461H33.0445L40.259 44.1062V32.5461H43.5546V48.7303H39.3684L32.1538 37.0812V48.7303H28.8582ZM48.2752 48.7303V32.5461H51.5708V48.7303H48.2752ZM54.8663 46.4183L57.2712 44.1952C57.7165 44.8176 58.34 45.2623 58.9635 45.618C59.5869 45.9736 60.2104 46.1515 60.923 46.1515C61.5464 46.1515 62.0809 45.9736 62.4371 45.618C62.7934 45.2623 62.9715 44.8176 62.9715 44.2841C62.9715 43.5727 62.6153 43.0392 61.8137 42.5945C61.012 42.2388 60.2104 41.7942 59.2307 41.3496C58.34 40.905 57.4493 40.3714 56.6477 39.66C55.8461 38.9486 55.4898 37.9705 55.4898 36.6366C55.4898 36.0142 55.5788 35.3917 55.8461 34.8581C56.1133 34.3246 56.4695 33.7911 56.9149 33.3464C57.3602 32.9018 57.8946 32.5461 58.5181 32.3683C59.1416 32.1015 59.8541 32.0126 60.6558 32.0126C61.9027 32.0126 62.9715 32.2793 63.8622 32.724C64.842 33.2575 65.6436 33.88 66.2671 34.6803L63.8622 36.8145C63.4169 36.192 62.8825 35.7474 62.3481 35.3028C61.8137 34.9471 61.2792 34.7692 60.6558 34.7692C60.1213 34.7692 59.5869 34.9471 59.3197 35.2138C58.9635 35.5695 58.7853 35.9252 58.7853 36.4588C58.7853 37.1702 59.1416 37.7037 59.9432 38.1483C60.7448 38.504 61.5464 38.9486 62.5262 39.3933C63.4169 39.8379 64.3076 40.3714 65.1092 41.0828C65.9108 41.7942 66.2671 42.8613 66.2671 44.1952C66.2671 44.9066 66.089 45.618 65.8217 46.2404C65.5545 46.8629 65.1092 47.3075 64.6638 47.7521C64.2185 48.1968 63.595 48.4635 62.9715 48.7303C62.3481 48.9971 61.6355 49.086 60.923 49.086C59.5869 49.086 58.429 48.8192 57.4493 48.3746C56.4695 47.93 55.5788 47.3075 54.8663 46.4183ZM68.1375 35.4806V32.4572H81.4088V35.4806H76.4209V48.6414H73.1254V35.4806H68.1375ZM84.4371 48.7303V32.5461H93.8784V35.3028H87.7326V39.0376H92.9877V41.7942H87.7326V45.7958H93.8784V48.5524H84.4371V48.7303ZM87.7326 31.1233L84.7043 28.011H88.178L90.761 31.1233H87.7326ZM97.9755 48.7303V32.5461H102.963C104.745 32.5461 106.17 32.9907 107.15 33.88C108.218 34.7692 108.664 35.9252 108.664 37.4369C108.664 38.4151 108.397 39.2154 107.951 39.9268C107.506 40.6382 106.882 41.1717 106.081 41.6164L111.158 48.8192H107.239L102.963 42.2388H101.271V48.8192H97.9755V48.7303ZM103.052 35.3028H101.182V39.3933H103.052C103.765 39.3933 104.299 39.2154 104.656 38.8597C105.012 38.504 105.19 37.9705 105.19 37.348C105.19 36.7255 105.012 36.2809 104.656 35.9252C104.299 35.4806 103.765 35.3028 103.052 35.3028ZM113.384 48.7303V32.5461H122.826V35.3028H116.68V39.0376H121.935V41.7942H116.68V45.7958H122.826V48.5524H113.384V48.7303ZM0 72.1173V55.9331H6.32387C7.57084 55.9331 8.8178 56.111 9.88662 56.5556C10.9554 57.0002 11.8461 57.5338 12.6477 58.3341C13.3603 59.0455 13.9838 59.9347 14.4291 60.9129C14.8745 61.8911 15.0526 62.9581 15.0526 64.0252C15.0526 65.0923 14.8745 66.1594 14.4291 67.1376C13.9838 68.1157 13.4494 69.005 12.6477 69.7164C11.9352 70.4278 10.9554 71.0502 9.88662 71.4949C8.8178 71.9395 7.6599 72.1173 6.32387 72.1173H0ZM6.41294 58.8676H3.29554V69.0939H6.41294C7.12549 69.0939 7.83804 69.005 8.46152 68.7382C9.085 68.4714 9.61942 68.1157 10.0648 67.6711C10.5101 67.2265 10.8664 66.693 11.1336 66.0705C11.4008 65.448 11.4899 64.7366 11.4899 64.1142C11.4899 63.4028 11.4008 62.6914 11.1336 62.0689C10.8664 61.4464 10.5101 60.9129 10.0648 60.4683C9.61942 60.0237 9.085 59.668 8.46152 59.4012C7.83804 59.0455 7.21456 58.8676 6.41294 58.8676ZM18.3481 72.1173V55.9331H27.7894V58.6898H21.6437V62.4246H26.8987V65.1812H21.6437V69.1828H27.7894V71.9395H18.3481V72.1173ZM38.0323 72.1173V55.9331H41.3279V69.0939H47.4736V72.1173H38.0323ZM49.1659 72.1173L55.3116 55.9331H59.5869L65.7327 72.1173H62.259L60.7448 67.9379H54.2428L52.7286 72.1173H49.1659ZM55.2226 65.0923H59.676L57.4493 59.0455L55.2226 65.0923ZM81.8541 69.4496C82.7448 69.4496 83.6355 69.2718 84.348 68.8271C85.0606 68.3825 85.6841 67.849 86.1294 67.2265L88.7124 69.1828C87.9998 70.161 87.0201 70.9613 85.8622 71.5838C84.7043 72.2062 83.3683 72.473 81.9432 72.473C80.6962 72.473 79.5383 72.2062 78.4695 71.7616C77.4007 71.317 76.51 70.6945 75.7084 69.8942C74.9958 69.0939 74.3723 68.2047 73.927 67.1376C73.4816 66.0705 73.3035 65.0034 73.3035 63.8474C73.3035 62.6914 73.4816 61.6243 73.927 60.5572C74.3723 59.4901 74.9067 58.6009 75.7084 57.8005C76.4209 57.0002 77.4007 56.3778 78.4695 55.9331C79.5383 55.4885 80.6962 55.2218 81.9432 55.2218C83.3683 55.2218 84.7043 55.4885 85.8622 56.111C87.0201 56.7335 87.9998 57.5338 88.7124 58.5119L86.1294 60.5572C85.6841 59.9347 85.0606 59.4012 84.348 58.9566C83.6355 58.5119 82.8339 58.3341 81.8541 58.3341C81.1416 58.3341 80.429 58.5119 79.7165 58.7787C79.0039 59.0455 78.5586 59.4901 78.0241 59.9347C77.4897 60.3793 77.2225 61.0018 76.9553 61.7132C76.6881 62.4246 76.5991 63.136 76.5991 63.8474C76.5991 64.6477 76.6881 65.3591 76.9553 65.9816C77.2225 66.693 77.5788 67.2265 78.0241 67.6711C78.4695 68.1157 79.0039 68.5604 79.7165 68.8271C80.429 69.0939 81.1416 69.4496 81.8541 69.4496ZM101.093 66.0705V55.9331H104.388V65.8037C104.388 67.9379 103.765 69.5385 102.607 70.7835C101.449 72.0284 99.846 72.5619 97.7974 72.5619C95.7488 72.5619 94.1456 71.9395 92.9877 70.7835C91.8298 69.5385 91.2063 67.9379 91.2063 65.8037V55.9331H94.5019V66.0705C94.5019 67.1376 94.7691 68.0268 95.3925 68.5604C96.016 69.0939 96.8176 69.4496 97.7974 69.4496C98.7772 69.4496 99.5788 69.1828 100.202 68.5604C100.826 67.9379 101.093 67.1376 101.093 66.0705ZM108.664 72.1173V55.9331H111.959V69.0939H118.105V72.1173H108.664ZM117.66 58.8676V55.8442H130.931V58.8676H125.943V72.0284H122.648V58.8676H117.66ZM143.579 66.0705V55.9331H146.874V65.8037C146.874 67.9379 146.251 69.5385 145.093 70.7835C143.935 72.0284 142.332 72.5619 140.283 72.5619C138.235 72.5619 136.631 71.9395 135.473 70.7835C134.316 69.5385 133.692 67.9379 133.692 65.8037V55.9331H136.988V66.0705C136.988 67.1376 137.255 68.0268 137.878 68.5604C138.502 69.1828 139.303 69.4496 140.283 69.4496C141.263 69.4496 142.065 69.1828 142.688 68.5604C143.311 67.9379 143.579 67.1376 143.579 66.0705ZM151.15 72.1173V55.9331H156.137C157.919 55.9331 159.344 56.3778 160.324 57.267C161.392 58.1562 161.838 59.3123 161.838 60.824C161.838 61.8021 161.571 62.6024 161.125 63.3138C160.68 64.0252 160.056 64.5588 159.255 65.0034L164.332 72.2062H160.413L156.137 65.6259H154.445V72.2062H151.15V72.1173ZM156.226 58.6898H154.356V62.7803H156.226C156.939 62.7803 157.473 62.6024 157.83 62.2468C158.186 61.8911 158.453 61.3575 158.453 60.735C158.453 60.1126 158.275 59.668 157.83 59.3123C157.473 58.8676 156.939 58.6898 156.226 58.6898ZM166.558 72.1173V55.9331H176V58.6898H169.854V62.4246H175.109V65.1812H169.854V69.1828H176V71.9395H166.558V72.1173Z" fill="black"/>
</svg>
